<mxfile host="app.diagrams.net" agent="Mozilla/5.0 (Windows NT 10.0; Win64; x64) AppleWebKit/537.36 (KHTML, like Gecko) Chrome/140.0.0.0 Safari/537.36" version="28.2.3">
  <diagram name="第 1 页" id="4hZ4vGxtpUflX_UKp4ni">
    <mxGraphModel dx="826" dy="444" grid="1" gridSize="10" guides="1" tooltips="1" connect="1" arrows="1" fold="1" page="1" pageScale="1" pageWidth="827" pageHeight="1169" math="0" shadow="0">
      <root>
        <mxCell id="0" />
        <mxCell id="1" parent="0" />
        <mxCell id="3Z-vK8uni2_GgaEGqB0D-29" style="edgeStyle=orthogonalEdgeStyle;rounded=0;orthogonalLoop=1;jettySize=auto;html=1;exitX=1;exitY=0.5;exitDx=0;exitDy=0;entryX=0;entryY=0.5;entryDx=0;entryDy=0;" edge="1" parent="1" source="3Z-vK8uni2_GgaEGqB0D-18" target="3Z-vK8uni2_GgaEGqB0D-25">
          <mxGeometry relative="1" as="geometry" />
        </mxCell>
        <mxCell id="3Z-vK8uni2_GgaEGqB0D-18" value="" style="rounded=0;whiteSpace=wrap;html=1;" vertex="1" parent="1">
          <mxGeometry x="140" y="210" width="490" height="290" as="geometry" />
        </mxCell>
        <mxCell id="3Z-vK8uni2_GgaEGqB0D-41" style="edgeStyle=orthogonalEdgeStyle;rounded=0;orthogonalLoop=1;jettySize=auto;html=1;entryX=1;entryY=0.25;entryDx=0;entryDy=0;" edge="1" parent="1" source="3Z-vK8uni2_GgaEGqB0D-2" target="3Z-vK8uni2_GgaEGqB0D-30">
          <mxGeometry relative="1" as="geometry">
            <Array as="points">
              <mxPoint x="320" y="235" />
              <mxPoint x="320" y="235" />
            </Array>
          </mxGeometry>
        </mxCell>
        <mxCell id="3Z-vK8uni2_GgaEGqB0D-2" value="&lt;font style=&quot;font-size: 24px;&quot;&gt;FSM&lt;/font&gt;" style="rounded=0;whiteSpace=wrap;html=1;" vertex="1" parent="1">
          <mxGeometry x="330" y="220" width="120" height="60" as="geometry" />
        </mxCell>
        <mxCell id="3Z-vK8uni2_GgaEGqB0D-4" value="&lt;font style=&quot;font-size: 24px; color: rgb(204, 204, 0);&quot;&gt;Yellow&lt;/font&gt;" style="ellipse;whiteSpace=wrap;html=1;aspect=fixed;" vertex="1" parent="1">
          <mxGeometry x="350" y="420" width="80" height="80" as="geometry" />
        </mxCell>
        <mxCell id="3Z-vK8uni2_GgaEGqB0D-5" value="&lt;font style=&quot;font-size: 24px; color: rgb(255, 0, 0);&quot;&gt;Red&lt;/font&gt;" style="ellipse;whiteSpace=wrap;html=1;aspect=fixed;" vertex="1" parent="1">
          <mxGeometry x="200" y="290" width="80" height="80" as="geometry" />
        </mxCell>
        <mxCell id="3Z-vK8uni2_GgaEGqB0D-6" value="&lt;font style=&quot;font-size: 24px; color: rgb(77, 255, 42);&quot;&gt;Green&lt;/font&gt;" style="ellipse;whiteSpace=wrap;html=1;aspect=fixed;" vertex="1" parent="1">
          <mxGeometry x="510" y="280" width="80" height="80" as="geometry" />
        </mxCell>
        <mxCell id="3Z-vK8uni2_GgaEGqB0D-8" value="" style="endArrow=classic;html=1;rounded=0;entryX=1;entryY=0.5;entryDx=0;entryDy=0;exitX=0;exitY=1;exitDx=0;exitDy=0;" edge="1" parent="1" source="3Z-vK8uni2_GgaEGqB0D-6" target="3Z-vK8uni2_GgaEGqB0D-4">
          <mxGeometry width="50" height="50" relative="1" as="geometry">
            <mxPoint x="390" y="590" as="sourcePoint" />
            <mxPoint x="440" y="540" as="targetPoint" />
          </mxGeometry>
        </mxCell>
        <mxCell id="3Z-vK8uni2_GgaEGqB0D-9" value="" style="endArrow=classic;html=1;rounded=0;entryX=1;entryY=1;entryDx=0;entryDy=0;exitX=0;exitY=0.5;exitDx=0;exitDy=0;" edge="1" parent="1" source="3Z-vK8uni2_GgaEGqB0D-4" target="3Z-vK8uni2_GgaEGqB0D-5">
          <mxGeometry width="50" height="50" relative="1" as="geometry">
            <mxPoint x="390" y="590" as="sourcePoint" />
            <mxPoint x="440" y="540" as="targetPoint" />
          </mxGeometry>
        </mxCell>
        <mxCell id="3Z-vK8uni2_GgaEGqB0D-10" value="" style="endArrow=classic;html=1;rounded=0;entryX=0;entryY=0.5;entryDx=0;entryDy=0;exitX=1;exitY=0.5;exitDx=0;exitDy=0;" edge="1" parent="1" source="3Z-vK8uni2_GgaEGqB0D-5" target="3Z-vK8uni2_GgaEGqB0D-6">
          <mxGeometry width="50" height="50" relative="1" as="geometry">
            <mxPoint x="390" y="590" as="sourcePoint" />
            <mxPoint x="440" y="540" as="targetPoint" />
          </mxGeometry>
        </mxCell>
        <mxCell id="3Z-vK8uni2_GgaEGqB0D-11" value="" style="endArrow=classic;html=1;rounded=0;entryX=0;entryY=0;entryDx=0;entryDy=0;exitX=1;exitY=0.5;exitDx=0;exitDy=0;" edge="1" parent="1" source="3Z-vK8uni2_GgaEGqB0D-2" target="3Z-vK8uni2_GgaEGqB0D-6">
          <mxGeometry width="50" height="50" relative="1" as="geometry">
            <mxPoint x="300" y="322" as="sourcePoint" />
            <mxPoint x="362" y="280" as="targetPoint" />
          </mxGeometry>
        </mxCell>
        <mxCell id="3Z-vK8uni2_GgaEGqB0D-12" value="經過8個clk觸發&lt;div&gt;count_reg == &lt;font style=&quot;color: rgb(51, 255, 51);&quot;&gt;GREEN TIME&lt;/font&gt;&lt;/div&gt;" style="text;html=1;align=center;verticalAlign=middle;whiteSpace=wrap;rounded=0;" vertex="1" parent="1">
          <mxGeometry x="465" y="390" width="170" height="30" as="geometry" />
        </mxCell>
        <mxCell id="3Z-vK8uni2_GgaEGqB0D-13" value="經過2個clk觸發&lt;div&gt;count_reg == &lt;font style=&quot;color: rgb(204, 204, 0);&quot;&gt;yellowTIME&lt;/font&gt;&lt;/div&gt;" style="text;html=1;align=center;verticalAlign=middle;whiteSpace=wrap;rounded=0;" vertex="1" parent="1">
          <mxGeometry x="130" y="400" width="170" height="30" as="geometry" />
        </mxCell>
        <mxCell id="3Z-vK8uni2_GgaEGqB0D-14" value="經過10個clk觸發&lt;div&gt;count_reg == &lt;font style=&quot;color: rgb(255, 0, 0);&quot;&gt;RED TIME&lt;/font&gt;&lt;/div&gt;" style="text;html=1;align=center;verticalAlign=middle;whiteSpace=wrap;rounded=0;" vertex="1" parent="1">
          <mxGeometry x="315" y="290" width="150" height="30" as="geometry" />
        </mxCell>
        <mxCell id="3Z-vK8uni2_GgaEGqB0D-15" value="rst / 初始化" style="text;html=1;align=center;verticalAlign=middle;whiteSpace=wrap;rounded=0;" vertex="1" parent="1">
          <mxGeometry x="480" y="235" width="70" height="30" as="geometry" />
        </mxCell>
        <mxCell id="3Z-vK8uni2_GgaEGqB0D-19" value="traffic_light模組" style="text;html=1;align=center;verticalAlign=middle;whiteSpace=wrap;rounded=0;" vertex="1" parent="1">
          <mxGeometry x="334" y="180" width="116" height="30" as="geometry" />
        </mxCell>
        <mxCell id="3Z-vK8uni2_GgaEGqB0D-20" value="clk" style="triangle;whiteSpace=wrap;html=1;" vertex="1" parent="1">
          <mxGeometry x="40" y="240" width="60" height="80" as="geometry" />
        </mxCell>
        <mxCell id="3Z-vK8uni2_GgaEGqB0D-21" value="rst" style="triangle;whiteSpace=wrap;html=1;" vertex="1" parent="1">
          <mxGeometry x="40" y="380" width="60" height="80" as="geometry" />
        </mxCell>
        <mxCell id="3Z-vK8uni2_GgaEGqB0D-22" style="edgeStyle=orthogonalEdgeStyle;rounded=0;orthogonalLoop=1;jettySize=auto;html=1;entryX=-0.004;entryY=0.409;entryDx=0;entryDy=0;entryPerimeter=0;" edge="1" parent="1" source="3Z-vK8uni2_GgaEGqB0D-21" target="3Z-vK8uni2_GgaEGqB0D-18">
          <mxGeometry relative="1" as="geometry" />
        </mxCell>
        <mxCell id="3Z-vK8uni2_GgaEGqB0D-24" style="edgeStyle=orthogonalEdgeStyle;rounded=0;orthogonalLoop=1;jettySize=auto;html=1;exitX=1;exitY=0.5;exitDx=0;exitDy=0;entryX=-0.003;entryY=0.409;entryDx=0;entryDy=0;entryPerimeter=0;" edge="1" parent="1" source="3Z-vK8uni2_GgaEGqB0D-20" target="3Z-vK8uni2_GgaEGqB0D-18">
          <mxGeometry relative="1" as="geometry" />
        </mxCell>
        <mxCell id="3Z-vK8uni2_GgaEGqB0D-25" value="light_out" style="triangle;whiteSpace=wrap;html=1;" vertex="1" parent="1">
          <mxGeometry x="680" y="315" width="60" height="80" as="geometry" />
        </mxCell>
        <mxCell id="3Z-vK8uni2_GgaEGqB0D-42" style="edgeStyle=orthogonalEdgeStyle;rounded=0;orthogonalLoop=1;jettySize=auto;html=1;exitX=1;exitY=0.75;exitDx=0;exitDy=0;entryX=0;entryY=0.75;entryDx=0;entryDy=0;" edge="1" parent="1" source="3Z-vK8uni2_GgaEGqB0D-30" target="3Z-vK8uni2_GgaEGqB0D-2">
          <mxGeometry relative="1" as="geometry" />
        </mxCell>
        <mxCell id="3Z-vK8uni2_GgaEGqB0D-30" value="&lt;font style=&quot;font-size: 22px;&quot;&gt;Counter&lt;/font&gt;&lt;div&gt;&lt;font style=&quot;font-size: 22px;&quot;&gt;(count_reg)&lt;/font&gt;&lt;/div&gt;" style="rounded=0;whiteSpace=wrap;html=1;" vertex="1" parent="1">
          <mxGeometry x="160" y="220" width="120" height="60" as="geometry" />
        </mxCell>
        <mxCell id="3Z-vK8uni2_GgaEGqB0D-33" value="output: light_out = 3&#39;b001" style="text;html=1;align=center;verticalAlign=middle;whiteSpace=wrap;rounded=0;" vertex="1" parent="1">
          <mxGeometry x="480" y="170" width="170" height="30" as="geometry" />
        </mxCell>
        <mxCell id="3Z-vK8uni2_GgaEGqB0D-35" style="edgeStyle=orthogonalEdgeStyle;rounded=0;orthogonalLoop=1;jettySize=auto;html=1;entryX=0.885;entryY=0.185;entryDx=0;entryDy=0;entryPerimeter=0;strokeColor=#33FF33;" edge="1" parent="1" source="3Z-vK8uni2_GgaEGqB0D-33" target="3Z-vK8uni2_GgaEGqB0D-6">
          <mxGeometry relative="1" as="geometry" />
        </mxCell>
        <mxCell id="3Z-vK8uni2_GgaEGqB0D-36" value="output: light_out = 3&#39;b010" style="text;html=1;align=center;verticalAlign=middle;whiteSpace=wrap;rounded=0;" vertex="1" parent="1">
          <mxGeometry x="400" y="510" width="170" height="30" as="geometry" />
        </mxCell>
        <mxCell id="3Z-vK8uni2_GgaEGqB0D-38" style="edgeStyle=orthogonalEdgeStyle;rounded=0;orthogonalLoop=1;jettySize=auto;html=1;exitX=0.5;exitY=0;exitDx=0;exitDy=0;entryX=0.23;entryY=0.905;entryDx=0;entryDy=0;entryPerimeter=0;strokeColor=#CCCC00;" edge="1" parent="1" source="3Z-vK8uni2_GgaEGqB0D-36">
          <mxGeometry relative="1" as="geometry">
            <mxPoint x="543.3" y="490" as="sourcePoint" />
            <mxPoint x="426.7000000000001" y="472.4" as="targetPoint" />
            <Array as="points">
              <mxPoint x="485" y="490" />
              <mxPoint x="427" y="490" />
            </Array>
          </mxGeometry>
        </mxCell>
        <mxCell id="3Z-vK8uni2_GgaEGqB0D-40" style="edgeStyle=orthogonalEdgeStyle;rounded=0;orthogonalLoop=1;jettySize=auto;html=1;exitX=0.75;exitY=1;exitDx=0;exitDy=0;entryX=0;entryY=0.5;entryDx=0;entryDy=0;strokeColor=#FF0000;" edge="1" parent="1">
          <mxGeometry relative="1" as="geometry">
            <mxPoint x="137.5" y="200" as="sourcePoint" />
            <mxPoint x="200" y="330" as="targetPoint" />
            <Array as="points">
              <mxPoint x="150" y="200" />
              <mxPoint x="150" y="330" />
            </Array>
          </mxGeometry>
        </mxCell>
        <mxCell id="3Z-vK8uni2_GgaEGqB0D-39" value="light_out &amp;lt;= 3&#39;b100" style="text;html=1;align=center;verticalAlign=middle;whiteSpace=wrap;rounded=0;" vertex="1" parent="1">
          <mxGeometry x="40" y="170" width="130" height="30" as="geometry" />
        </mxCell>
        <mxCell id="3Z-vK8uni2_GgaEGqB0D-43" value="歸零" style="text;html=1;align=center;verticalAlign=middle;whiteSpace=wrap;rounded=0;" vertex="1" parent="1">
          <mxGeometry x="274" y="210" width="60" height="30" as="geometry" />
        </mxCell>
        <mxCell id="3Z-vK8uni2_GgaEGqB0D-44" value="時脈" style="text;html=1;align=center;verticalAlign=middle;whiteSpace=wrap;rounded=0;" vertex="1" parent="1">
          <mxGeometry x="274" y="260" width="60" height="30" as="geometry" />
        </mxCell>
        <mxCell id="3Z-vK8uni2_GgaEGqB0D-46" value="" style="strokeWidth=2;html=1;shape=mxgraph.flowchart.annotation_2;align=left;labelPosition=right;pointerEvents=1;rotation=90;" vertex="1" parent="1">
          <mxGeometry x="375" y="610" width="50" height="100" as="geometry" />
        </mxCell>
        <mxCell id="3Z-vK8uni2_GgaEGqB0D-47" value="紅綠燈模組" style="text;html=1;align=center;verticalAlign=middle;whiteSpace=wrap;rounded=0;" vertex="1" parent="1">
          <mxGeometry x="370" y="585" width="70" height="30" as="geometry" />
        </mxCell>
        <mxCell id="3Z-vK8uni2_GgaEGqB0D-55" style="edgeStyle=orthogonalEdgeStyle;rounded=0;orthogonalLoop=1;jettySize=auto;html=1;entryX=0.5;entryY=0;entryDx=0;entryDy=0;" edge="1" parent="1" source="3Z-vK8uni2_GgaEGqB0D-48" target="3Z-vK8uni2_GgaEGqB0D-54">
          <mxGeometry relative="1" as="geometry" />
        </mxCell>
        <mxCell id="3Z-vK8uni2_GgaEGqB0D-48" value="FSM" style="rounded=0;whiteSpace=wrap;html=1;" vertex="1" parent="1">
          <mxGeometry x="334" y="690" width="40" height="20" as="geometry" />
        </mxCell>
        <mxCell id="3Z-vK8uni2_GgaEGqB0D-65" style="edgeStyle=orthogonalEdgeStyle;rounded=0;orthogonalLoop=1;jettySize=auto;html=1;entryX=1;entryY=0.5;entryDx=0;entryDy=0;" edge="1" parent="1" source="3Z-vK8uni2_GgaEGqB0D-49" target="3Z-vK8uni2_GgaEGqB0D-48">
          <mxGeometry relative="1" as="geometry" />
        </mxCell>
        <mxCell id="3Z-vK8uni2_GgaEGqB0D-49" value="Counter" style="rounded=0;whiteSpace=wrap;html=1;" vertex="1" parent="1">
          <mxGeometry x="430" y="690" width="55" height="20" as="geometry" />
        </mxCell>
        <mxCell id="3Z-vK8uni2_GgaEGqB0D-53" value="rst/初始化" style="text;html=1;align=center;verticalAlign=middle;whiteSpace=wrap;rounded=0;" vertex="1" parent="1">
          <mxGeometry x="375" y="610" width="60" height="30" as="geometry" />
        </mxCell>
        <mxCell id="3Z-vK8uni2_GgaEGqB0D-57" style="edgeStyle=orthogonalEdgeStyle;rounded=0;orthogonalLoop=1;jettySize=auto;html=1;" edge="1" parent="1" source="3Z-vK8uni2_GgaEGqB0D-54">
          <mxGeometry relative="1" as="geometry">
            <mxPoint x="280" y="780" as="targetPoint" />
          </mxGeometry>
        </mxCell>
        <mxCell id="3Z-vK8uni2_GgaEGqB0D-54" value="Green" style="rounded=0;whiteSpace=wrap;html=1;" vertex="1" parent="1">
          <mxGeometry x="260" y="730" width="40" height="20" as="geometry" />
        </mxCell>
        <mxCell id="3Z-vK8uni2_GgaEGqB0D-56" value="&lt;font style=&quot;color: rgb(51, 255, 51);&quot;&gt;Start:Green&lt;/font&gt;" style="text;html=1;align=center;verticalAlign=middle;whiteSpace=wrap;rounded=0;" vertex="1" parent="1">
          <mxGeometry x="260" y="670" width="60" height="30" as="geometry" />
        </mxCell>
        <mxCell id="3Z-vK8uni2_GgaEGqB0D-67" style="edgeStyle=orthogonalEdgeStyle;rounded=0;orthogonalLoop=1;jettySize=auto;html=1;" edge="1" parent="1" source="3Z-vK8uni2_GgaEGqB0D-58">
          <mxGeometry relative="1" as="geometry">
            <mxPoint x="460" y="740" as="targetPoint" />
          </mxGeometry>
        </mxCell>
        <mxCell id="3Z-vK8uni2_GgaEGqB0D-70" style="edgeStyle=orthogonalEdgeStyle;rounded=0;orthogonalLoop=1;jettySize=auto;html=1;entryX=0.5;entryY=0;entryDx=0;entryDy=0;" edge="1" parent="1" source="3Z-vK8uni2_GgaEGqB0D-58" target="3Z-vK8uni2_GgaEGqB0D-69">
          <mxGeometry relative="1" as="geometry" />
        </mxCell>
        <mxCell id="3Z-vK8uni2_GgaEGqB0D-58" value="Yellow" style="rounded=0;whiteSpace=wrap;html=1;" vertex="1" parent="1">
          <mxGeometry x="260" y="780" width="40" height="20" as="geometry" />
        </mxCell>
        <mxCell id="3Z-vK8uni2_GgaEGqB0D-59" value="經過8個週期?" style="text;html=1;align=center;verticalAlign=middle;whiteSpace=wrap;rounded=0;" vertex="1" parent="1">
          <mxGeometry x="190" y="700" width="85" height="30" as="geometry" />
        </mxCell>
        <mxCell id="3Z-vK8uni2_GgaEGqB0D-60" value="Yes" style="text;html=1;align=center;verticalAlign=middle;whiteSpace=wrap;rounded=0;" vertex="1" parent="1">
          <mxGeometry x="280" y="755" width="30" height="20" as="geometry" />
        </mxCell>
        <mxCell id="3Z-vK8uni2_GgaEGqB0D-61" value="No，則counter +1" style="text;html=1;align=center;verticalAlign=middle;whiteSpace=wrap;rounded=0;" vertex="1" parent="1">
          <mxGeometry x="315" y="720" width="106" height="20" as="geometry" />
        </mxCell>
        <mxCell id="3Z-vK8uni2_GgaEGqB0D-62" style="edgeStyle=orthogonalEdgeStyle;rounded=0;orthogonalLoop=1;jettySize=auto;html=1;entryX=0.545;entryY=1;entryDx=0;entryDy=0;entryPerimeter=0;" edge="1" parent="1" source="3Z-vK8uni2_GgaEGqB0D-54" target="3Z-vK8uni2_GgaEGqB0D-49">
          <mxGeometry relative="1" as="geometry" />
        </mxCell>
        <mxCell id="3Z-vK8uni2_GgaEGqB0D-66" value="No，則counter +1" style="text;html=1;align=center;verticalAlign=middle;whiteSpace=wrap;rounded=0;" vertex="1" parent="1">
          <mxGeometry x="315" y="770" width="106" height="20" as="geometry" />
        </mxCell>
        <mxCell id="3Z-vK8uni2_GgaEGqB0D-68" value="經過2個週期?" style="text;html=1;align=center;verticalAlign=middle;whiteSpace=wrap;rounded=0;" vertex="1" parent="1">
          <mxGeometry x="190" y="750" width="80" height="30" as="geometry" />
        </mxCell>
        <mxCell id="3Z-vK8uni2_GgaEGqB0D-73" style="edgeStyle=orthogonalEdgeStyle;rounded=0;orthogonalLoop=1;jettySize=auto;html=1;" edge="1" parent="1" source="3Z-vK8uni2_GgaEGqB0D-69">
          <mxGeometry relative="1" as="geometry">
            <mxPoint x="460" y="790" as="targetPoint" />
          </mxGeometry>
        </mxCell>
        <mxCell id="3Z-vK8uni2_GgaEGqB0D-74" style="edgeStyle=orthogonalEdgeStyle;rounded=0;orthogonalLoop=1;jettySize=auto;html=1;entryX=0;entryY=0.5;entryDx=0;entryDy=0;" edge="1" parent="1" source="3Z-vK8uni2_GgaEGqB0D-69" target="3Z-vK8uni2_GgaEGqB0D-54">
          <mxGeometry relative="1" as="geometry">
            <Array as="points">
              <mxPoint x="280" y="870" />
              <mxPoint x="130" y="870" />
              <mxPoint x="130" y="740" />
            </Array>
          </mxGeometry>
        </mxCell>
        <mxCell id="3Z-vK8uni2_GgaEGqB0D-69" value="Red" style="rounded=0;whiteSpace=wrap;html=1;" vertex="1" parent="1">
          <mxGeometry x="260" y="830" width="40" height="20" as="geometry" />
        </mxCell>
        <mxCell id="3Z-vK8uni2_GgaEGqB0D-71" value="經過10個週期?" style="text;html=1;align=center;verticalAlign=middle;whiteSpace=wrap;rounded=0;" vertex="1" parent="1">
          <mxGeometry x="180" y="800" width="90" height="30" as="geometry" />
        </mxCell>
        <mxCell id="3Z-vK8uni2_GgaEGqB0D-72" value="No，則counter +1" style="text;html=1;align=center;verticalAlign=middle;whiteSpace=wrap;rounded=0;" vertex="1" parent="1">
          <mxGeometry x="315" y="820" width="106" height="20" as="geometry" />
        </mxCell>
        <mxCell id="3Z-vK8uni2_GgaEGqB0D-75" value="Yes" style="text;html=1;align=center;verticalAlign=middle;whiteSpace=wrap;rounded=0;" vertex="1" parent="1">
          <mxGeometry x="280" y="850" width="30" height="20" as="geometry" />
        </mxCell>
        <mxCell id="3Z-vK8uni2_GgaEGqB0D-76" value="LOOP" style="text;html=1;align=center;verticalAlign=middle;whiteSpace=wrap;rounded=0;" vertex="1" parent="1">
          <mxGeometry x="120" y="790" width="60" height="30" as="geometry" />
        </mxCell>
      </root>
    </mxGraphModel>
  </diagram>
</mxfile>
